<?xml version="1.0" encoding="utf-8"?>
<!-- Generator: Adobe Illustrator 19.2.1, SVG Export Plug-In . SVG Version: 6.00 Build 0)  -->
<svg version="1.1" id="Layer_1" xmlns="http://www.w3.org/2000/svg" xmlns:xlink="http://www.w3.org/1999/xlink" x="0px" y="0px"
	 viewBox="0 0 48 48" style="enable-background:new 0 0 48 48;" xml:space="preserve">
<style type="text/css">
	.st0{fill:#231F20;}
</style>
<path class="st0" d="M24,12c6.6,0,12,5.4,12,12s-5.4,12-12,12s-12-5.4-12-12S17.4,12,24,12 M24,8C15.2,8,8,15.2,8,24
	c0,8.8,7.1,16,16,16s16-7.1,16-16C40,15.2,32.8,8,24,8L24,8z"/>
<path d="M24,32.3c4.7,0,8.5-3.8,8.5-8.5c0-4.7-3.8-8.5-8.5-8.5"/>
</svg>
