<?xml version="1.0" encoding="utf-8"?>
<!-- Generator: Adobe Illustrator 19.2.1, SVG Export Plug-In . SVG Version: 6.00 Build 0)  -->
<svg version="1.1" id="Layer_1" xmlns="http://www.w3.org/2000/svg" xmlns:xlink="http://www.w3.org/1999/xlink" x="0px" y="0px"
	 viewBox="0 0 298 345.1" style="enable-background:new 0 0 298 345.1;" xml:space="preserve">
<style type="text/css">
	.st0{fill:#DEDEDE;}
	.st1{fill:#D22856;}
</style>
<path class="st0" d="M264.6,102.1l5.4-5.4c7.7-7.7,9.1-18.9,3.1-24.9c-6-6-17.2-4.6-24.9,3.1l-5.4,5.4c-21-17-46.6-28.4-74.7-32
	v-9.6h7.7c10.9,0,19.8-8.7,19.8-19.4S186.6,0,175.7,0h-53.3c-10.9,0-19.8,8.7-19.8,19.4s8.9,19.4,19.8,19.4h7.7v9.6
	C56.7,57.6,0,120.2,0,196.1c0,82.3,66.7,149,149,149c82.3,0,149-66.7,149-149C298,160.4,285.5,127.7,264.6,102.1z M149,306.3
	c-60.8,0-110.2-49.3-110.2-110.2S88.2,85.9,149,85.9c60.8,0,110.2,49.3,110.2,110.2S209.8,306.3,149,306.3z"/>
<path class="st1" d="M148.5,69.6C78.6,69.6,22,126.2,22,196.1c0,69.9,56.6,126.5,126.5,126.5S275,266,275,196.1
	C275,126.2,218.4,69.6,148.5,69.6z M148.5,306.8c-60.8,0-110.2-49.3-110.2-110.2c0-60.8,49.3-110.2,110.2-110.2
	c60.8,0,110.2,49.3,110.2,110.2C258.7,257.5,209.3,306.8,148.5,306.8z"/>
<g>
	<path class="st1" d="M145.6,237.8H80.8v-13.6l23.3-23.5c6.9-7.1,11.4-11.9,13.5-14.7c2.1-2.7,3.6-5.3,4.6-7.6
		c0.9-2.3,1.4-4.7,1.4-7.2c0-3.7-1-6.5-3.1-8.3c-2.1-1.8-4.8-2.7-8.2-2.7c-3.6,0-7.1,0.8-10.5,2.5c-3.4,1.6-6.9,4-10.6,7L80.6,157
		c4.6-3.9,8.3-6.6,11.3-8.2c3-1.6,6.3-2.8,9.8-3.7c3.5-0.9,7.5-1.3,11.9-1.3c5.8,0,10.9,1.1,15.3,3.2c4.4,2.1,7.9,5.1,10.3,8.9
		c2.5,3.8,3.7,8.2,3.7,13.1c0,4.3-0.8,8.3-2.3,12c-1.5,3.7-3.8,7.6-7,11.5c-3.1,3.9-8.7,9.5-16.6,16.8l-11.9,11.2v0.9h40.4V237.8z"
		/>
	<path class="st1" d="M221.8,218.6h-11.2v19.2h-19.1v-19.2h-39.6v-13.6l40.6-59.8h18.1v58.2h11.2V218.6z M191.5,203.4v-15.7
		c0-2.6,0.1-6.4,0.3-11.4c0.2-5,0.4-7.9,0.5-8.7h-0.5c-1.6,3.5-3.4,6.8-5.6,10.1l-17,25.7H191.5z"/>
</g>
</svg>
